<svg width="320" height="165" viewBox="0 0 320 165" fill="none" xmlns="http://www.w3.org/2000/svg">
<path d="M38.6064 0C42.6396 4.94581e-05 45.9091 3.26957 45.9092 7.30273V35.6572C45.9094 42.5372 54.554 45.6001 58.8857 40.2549L89.3154 2.70508C90.702 0.994089 92.787 5.58888e-05 94.9893 0H312.695C316.728 0.00016407 319.998 3.26964 319.998 7.30273V157.184C319.998 161.217 316.728 164.486 312.695 164.486H121.393C117.359 164.486 114.09 161.217 114.09 157.184V128.883C114.09 121.997 105.432 118.937 101.105 124.294L70.8359 161.772C69.4495 163.489 67.3608 164.486 65.1543 164.486H7.30273C3.26957 164.486 4.84034e-05 161.217 0 157.184V7.30273C4.97265e-05 3.26957 3.26957 4.83505e-05 7.30273 0H38.6064Z" fill="#8A71FF"/>
</svg>
