<svg width="540" height="207" viewBox="0 0 540 207" fill="none" xmlns="http://www.w3.org/2000/svg">
<path d="M48.4258 0C53.4934 0 57.6016 4.10819 57.6016 9.17578L57.6006 44.7705C57.6005 53.4183 68.4692 57.2652 73.9092 50.543L112.056 3.40332C113.798 1.25074 116.419 0 119.188 0H530.175C535.242 0 539.351 4.10824 539.351 9.17578V197.492C539.35 202.56 535.242 206.668 530.175 206.668H152.318C147.251 206.668 143.143 202.56 143.143 197.492V161.963C143.142 153.308 132.259 149.466 126.825 156.203L88.8779 203.253C87.136 205.413 84.51 206.668 81.7354 206.668H9.17578C4.10824 206.668 0 202.56 0 197.492V9.17578C0 4.10824 4.10824 0 9.17578 0H48.4258Z" fill="#6C4DFF"/>
</svg>
